<svg width="1413" height="1379" viewBox="0 0 1413 1379" fill="none" xmlns="http://www.w3.org/2000/svg">
<path d="M87.2793 60.0058C58.1518 60.0058 37.7042 59.3879 22.8831 58.0491L1.37201 56.1267L33.2785 77.6505H34.1018C43.0219 77.2729 61.0679 77.1012 87.2793 76.8953H117.951V84.3788H123.131V104.049H119.906V123.719H120.832V127.22C117.264 126.156 113.696 124.886 109.82 123.307C100.556 119.394 91.6021 114.656 81.8586 108.58C82.4075 106.006 82.9221 103.431 83.4025 100.753C86.6274 100.41 90.9159 99.8952 96.2337 99.037C104.776 97.4236 108.653 96.7027 108.653 90.2833C108.653 82.9027 102.512 82.3535 98.8411 82.0102C84.8091 80.74 70.1253 79.6759 53.9662 78.8177L50.0208 78.6117V91.7251C50.0208 96.2907 49.0944 101.612 48.0652 107.207L47.9623 107.928C46.6243 114.073 44.8059 119.977 42.1985 126.534C39.6597 131.786 36.9837 136.317 34.2734 140.059C31.0141 144.625 25.6621 149.156 20.8933 153.07L12.4535 159.97L31.7689 168.689L32.8668 168.14C41.9927 163.643 48.5112 159.489 53.3829 155.061C57.843 151.216 62.5089 146.376 67.9982 139.853L68.5814 138.995C69.5763 137.176 70.7085 135.288 71.875 133.262C72.8013 131.683 73.7619 130.035 74.7225 128.319C79.0453 130.928 84.0543 133.262 89.6465 135.322C99.0469 139.785 109.339 143.732 120.386 147.131V163.059H122.411V182.729H128.552V163.059H126.528V148.95C129.444 149.774 132.394 150.564 135.413 151.319C152.19 155.232 168.967 158.15 186.67 160.244C203.652 162.441 228.731 164.192 261.084 165.428C289.045 166.835 331.827 167.625 385.244 167.728V182.764H391.385V167.728C393.513 167.728 395.64 167.728 397.801 167.728C430.737 167.728 465.353 167.385 501.994 167.041H507.106L508.204 165.188C508.719 164.329 512.561 160.038 536.748 158.837L540.454 158.665V142.462L536.508 142.668C523.746 143.355 510.4 143.973 496.711 144.556C497.98 143.149 498.529 141.295 498.529 138.858V99.6892C510.846 97.2176 513.831 95.6042 513.831 89.6311C513.831 83.6579 509.92 82.4908 503.435 80.8087C498.632 79.5386 491.496 77.9938 481.581 76.0714L480.929 75.9341L465.388 81.5296H435.849C439.279 81.3236 443.191 80.9803 447.479 80.4311C453.689 79.5385 461.785 78.2341 469.265 76.2774C475.097 74.8012 480.998 72.6042 486.83 69.6863L487.07 69.549C492.388 66.2192 497.912 60.5894 503.573 52.6939C508.239 45.7596 511.978 37.9327 514.757 29.3507C536.405 26.673 538.189 25.1626 538.189 18.8805C538.189 13.7656 535.548 12.7701 530.539 10.8821C523.265 8.78803 513.179 6.62535 501.377 4.59999L500.828 4.497L480.792 10.0582H304.312C274.327 10.0582 255.148 9.61191 242.146 8.65072L223.688 7.27759L250.208 27.5656L251.169 27.4969C256.383 27.188 273.4 26.776 304.277 26.776H336.047C335.292 28.2521 334.571 29.6253 333.851 30.8954C331.038 35.1178 326.989 39.2715 322.083 43.0476C316.251 46.8924 310.075 50.3595 303.763 53.3118C295.014 57.4312 285.888 60.7953 275.802 63.6446C269.764 65.464 262.799 67.2147 254.805 69.0341C254.805 68.7252 254.805 68.4162 254.805 68.0729C254.805 62.1685 251.031 61.2416 247.017 60.2118C239.778 58.5297 232.539 56.7446 225.026 54.8909C220.772 53.861 216.415 52.7625 211.886 51.6983L211.2 51.5267L186.532 59.9714H157.302V46.3088H248.698C251.889 46.3088 259.3 46.3088 259.3 37.5208C259.3 31.6163 255.526 30.6895 251.512 29.6596L243.038 27.6686C234.289 25.6089 225.197 23.4462 215.763 21.3178L215.077 21.1805L190.443 29.4536H157.268V22.588C164.198 22.3134 170.956 21.6611 176.857 20.7343C182.793 20.3223 188.419 19.9104 188.419 12.6328C188.419 5.35521 183.136 4.87461 176.96 4.0164C163.477 2.43731 145.877 1.16716 124.641 0.274626L117.985 0L121.21 9.13131C122.411 12.5298 122.994 16.1686 122.994 20.288V29.4193H100.179C71.4633 29.4193 51.1872 28.8014 36.3662 27.4626L15.9872 25.6432L46.144 47.064H47.0017C55.9217 46.6864 73.9678 46.5148 100.179 46.3088H122.994V59.9714H87.142L87.2793 60.0058ZM239.401 89.4251L240.087 89.3221C255.834 87.1251 269.077 84.8594 280.159 82.4221V142.359C280.159 143.938 280.433 145.208 280.879 146.238C276.111 146.067 271.479 145.861 267.053 145.655C237.891 144.865 216.518 143.767 199.81 142.119C183.17 140.368 169.275 138.411 157.473 136.077V112.974H248.87C252.061 112.974 259.471 112.974 259.471 104.186C259.471 98.2818 255.697 97.3549 251.683 96.3251L243.587 94.4027C234.701 92.3087 225.506 90.146 215.969 87.949L215.282 87.8117L190.649 96.0848H157.473V76.8953H214.631L211.097 77.5475L239.435 89.4251H239.401ZM348.226 56.4356C356.254 51.973 362.189 46.7207 365.895 40.8163C368.879 36.7312 371.555 32.0283 373.82 26.8104H479.934C478.356 32.0969 476.812 35.7014 475.028 38.5163L474.72 39.0655C472.387 43.7685 469.436 47.7849 466.451 50.3252C462.437 53.0028 459.109 55.0968 456.022 56.0924L455.747 56.1953C453.071 57.3625 450.567 57.9461 447.376 58.1177C443.911 58.5983 439.76 58.8043 434.682 58.8043C424.39 58.8043 403.119 57.3282 373.134 54.5476L371.418 54.3759L362.018 69.1371L370.389 69.9953C374.883 70.4416 379.103 70.8878 383.083 71.2998V81.5639H317.589L297.622 78.2684C307.948 75.6251 316.8 72.7759 324.073 69.7893C332.41 66.1505 340.541 61.6535 348.226 56.4356ZM424.733 76.9296C425.488 77.2042 426.002 77.4789 426.345 77.7192V81.5296H395.948V72.6729C412.862 74.5953 422.537 76.0027 424.733 76.9296ZM314.398 140.986V140.711H384.009V143.423H387.337V147.543C380.338 147.611 373.477 147.646 366.684 147.646C346.922 147.646 328.602 147.474 311.757 147.131C313.3 145.929 314.398 144.041 314.398 140.986ZM393.101 143.423V140.711H464.324V141.673C464.324 143.423 464.599 144.728 465.148 145.758C461.031 145.895 456.914 146.067 452.762 146.204C431.835 146.856 412.245 147.268 393.478 147.474V143.389H393.101V143.423ZM393.101 123.994V123.753H394.027V104.083H383.117V123.753H384.044V123.994H314.433V98.4191H464.359V123.994H393.101Z" fill="white"/>
<path d="M204.887 222.825C212.367 221.898 216.895 221.315 216.895 214.758C216.895 209.334 213.499 207.755 210.205 206.21L209.759 206.039C202.04 203.945 192.091 201.542 178.505 198.383L177.818 198.212L159.978 204.528H76.2324L32.2496 194.298L40.3806 207.034C42.3018 210.055 43.2281 212.561 43.2281 214.724V335.388C43.2281 344.622 41.8558 347.677 41.4098 348.364L41.101 348.913L40.8609 349.565C39.2484 354.096 39.2484 358.079 39.2484 360.447C39.2484 367.656 44.772 369.372 47.4137 370.196L47.894 370.299C53.2118 370.849 57.1915 371.192 60.6223 371.192C69.6796 371.192 75.2032 370.643 75.2032 363.262V221.349H125.499V240.848H129.89V221.349H151.058C142.413 230.789 130.954 242.118 115.927 256.124L107.521 263.95L117.128 267.074C133.63 272.43 144.951 276.961 151.744 280.874C158.469 284.65 163.649 288.735 167.08 293.061L167.32 293.335C171.471 297.798 171.917 300.441 171.917 301.403C171.917 301.609 171.369 302.982 168.864 304.286L168.658 304.389C165.982 306.071 162.14 307.307 157.199 308.097C152.465 308.92 145.054 309.298 133.836 309.298C121.313 309.298 107.315 308.406 92.1857 306.655L90.5046 306.449L80.4523 321.416L89.5096 321.931C108.825 322.995 122.823 324.402 131.194 326.188C134.899 326.771 137.815 327.698 140.285 329.14C141.658 330.994 142.927 331.852 143.167 331.989L143.922 332.47L144.746 332.401C162.002 331.097 172.981 329.655 179.054 327.904C187.116 326.291 192.674 324.025 196.619 320.832C204.922 315.511 206.191 307.719 206.191 303.531C206.191 296.356 202.863 289.834 196.413 284.204C190.89 278.986 183.17 274.215 172.844 269.546C165.09 266.044 155.004 262.474 142.241 258.767C158.537 247.267 172.912 236.282 185.881 225.331C193.326 224.61 199.776 223.718 204.956 222.722L204.887 222.825Z" fill="white"/>
<path d="M543.164 346.2C528.515 344.723 515.272 342.595 502.544 339.643C487.414 337 472.318 332.983 457.566 327.662C445.695 323.818 435.334 319.87 427.1 316.025C428.473 315.888 429.879 315.716 431.286 315.544L435.506 315.064C447.411 313.862 459.281 312.489 471.872 310.773C485.87 308.885 497.329 307.134 507.93 305.315C514.448 305.795 520.178 306.001 525.393 306.001C534.519 306.001 540.523 306.001 540.523 298.071C540.523 291.515 540.523 290.656 495.27 281.662L494.516 281.525L493.795 281.834C490.845 283.104 488.031 284.203 485.115 285.233C487.414 283.894 489.541 281.559 489.541 277.097C489.541 274.762 489.129 272.394 488.649 269.613L488.168 266.661L487.825 265.837C487.311 264.327 487.311 257.873 487.311 252.209V226.188C505.734 222.549 507.141 221.107 507.141 215.409C507.141 210.019 503.95 208.749 500.314 207.307C493.967 204.767 484.052 202.227 470.946 199.687L470.225 199.549L451.871 207.273H271.308L223.551 196.357L235.284 210.328C237.308 212.731 238.303 215.066 238.303 217.331V340.02C220.738 341.531 201.182 342.664 180.529 343.865L157.748 345.204L174.387 355.64C190.993 366.041 198.609 369.92 202.451 369.92C204.784 369.92 207.529 368.204 212.675 363.432C229.143 361.819 245.474 359.965 263.966 357.665C281.531 355.434 300.538 352.894 320.677 349.667C338.208 347.092 358.484 343.591 380.99 339.265V353.752H393.856V334.082H390.013L382.912 322.959L381.128 323.234C352.377 327.491 326.681 330.889 304.655 333.361C292.99 334.871 281.428 336.176 270.244 337.24V281.079H348.363C356.22 291.24 365.209 300.68 375.089 309.091C385.073 317.913 397.904 326.117 413.068 333.326C426.071 340.741 440.892 346.92 458.218 352.173C471.358 357.219 487.448 361.613 507.381 365.629L508.856 365.938L510.057 364.599C511.018 363.57 516.164 360.171 542.993 360.171H546.801V346.474L543.233 346.131L543.164 346.2ZM452.969 252.003V264.258H270.175V252.003H452.969ZM452.969 224.094V235.113H388.367V224.094H452.969ZM383.975 235.113H270.175V224.094H383.975V235.113ZM479.42 287.121C478.802 287.292 478.185 287.498 477.567 287.67C470.912 289.764 463.57 291.652 455.61 293.334C447.994 295.256 439.485 296.973 428.027 298.964C420.17 300.303 412.348 301.607 402.947 302.912C397.698 299.616 393.444 296.63 389.876 293.849C385.347 290.416 380.75 286.262 375.81 281.182H453.003C453.62 288.116 460.07 288.116 468.098 288.116C470.363 288.116 474.068 287.807 479.42 287.155V287.121Z" fill="white"/>
<path d="M191.061 518.734L190.993 519.043C189.449 522.613 189.449 525.668 189.449 527.35C189.449 536.653 197.34 537.408 206.843 537.408C218.37 537.408 225.953 536.756 225.953 528.071V479.634C230.618 479.325 235.181 478.741 239.538 477.814C242.592 477.505 248.081 476.819 248.081 469.747C248.081 462.676 242.763 461.92 238.475 461.165H238.372C226.158 459.517 211.44 458.282 193.394 457.389L186.704 457.046L189.963 466.211C191.164 469.61 191.747 473.249 191.747 477.368V515.37C191.747 515.919 191.37 517.498 191.096 518.665L191.061 518.734Z" fill="white"/>
<path d="M43.0223 516.16C39.5572 521.172 36.4694 525.085 33.5876 528.106L33.3817 528.312C31.7006 530.303 27.9611 533.702 19.6242 538.473L5.90101 546.369L31.8722 552.788L32.6269 552.513C40.3462 549.527 46.1443 546.609 50.7759 543.313C55.7505 539.949 59.5587 536.86 62.7151 533.564C66.9693 529.136 70.3657 524.536 73.0418 519.627C75.2375 515.851 78.1537 509.5 79.5946 500.678C80.4523 495.151 81.5502 487.049 81.8932 477.197C86.319 476.579 89.7498 475.996 92.7346 475.309C96.1311 474.76 101.826 473.902 101.826 466.899C101.826 459.896 97.0231 459.758 93.1806 459.347H93.0433C81.3786 458.729 65.8714 457.939 49.3693 457.39L35.8176 456.909L47.2079 468.341C48.9919 470.126 49.9868 474.417 49.9868 480.39C49.9868 487.015 49.0605 493.538 47.894 500.781C46.1786 507.612 44.6691 512.246 42.988 516.091L43.0223 516.16Z" fill="white"/>
<path d="M51.8051 397.727L30.2939 395.805L62.2004 417.329H63.0238C71.9782 416.951 89.887 416.779 116.201 416.779H231.236C233.706 416.779 241.288 416.779 241.288 407.991C241.288 402.087 237.514 401.16 233.535 400.164C226.33 398.448 218.954 396.594 211.337 394.706C206.363 393.471 201.319 392.2 196.139 390.93L195.453 390.759L168.521 399.924H116.235C89.2351 399.924 67.5524 399.203 51.8394 397.796L51.8051 397.727Z" fill="white"/>
<path d="M538.978 539.949C529.749 537.649 520.521 535.452 510.949 533.152L496.299 529.616L467.686 540.018H394.301V470.709H503.264C508.376 470.709 516.129 470.709 516.129 462.093C516.129 455.81 511.669 454.884 507.827 454.06C495.647 451.073 482.096 447.881 466.417 444.276L465.696 444.105L438.799 453.991H394.301V413.003C401.232 412.729 407.99 412.076 413.891 411.149C419.827 410.737 425.453 410.326 425.453 403.048C425.453 395.77 420.17 395.29 413.994 394.432C400.477 392.852 382.877 391.582 361.675 390.69L354.985 390.415L358.209 399.546C359.41 402.945 359.994 406.584 359.994 410.703V453.957H319.613C292.613 453.957 271.753 453.27 255.8 451.828L249.83 451.279H253.296C255.766 451.279 263.348 451.279 263.348 442.491C263.348 436.587 259.574 435.66 255.594 434.63C243.689 431.781 231.236 428.76 218.199 425.567L217.512 425.396L190.581 434.39H85.0149C56.2647 434.39 35.9887 433.772 21.202 432.433L0.823012 430.614L30.9798 452.034H31.8374C40.7575 451.657 58.8035 451.485 85.0149 451.279H120.867V536.31C120.867 538.13 120.524 540.533 120.146 543.348L119.906 545.098C118.602 549.767 118.602 553.715 118.602 556.392C118.602 564.597 125.224 565.009 135.997 565.009C148.828 565.009 157.37 563.052 157.37 553.543C157.37 550.968 156.719 548.703 156.067 546.506L155.346 544L155.106 543.828V451.279H237.205L265.544 471.396H266.401C275.321 471.018 293.367 470.846 319.579 470.64H359.959V539.949H273.091C247.189 539.949 225.712 539.297 209.244 537.992L188.762 536.379L219.056 557.388H219.914C228.868 557.01 246.777 556.839 273.091 556.839H534.347C538.635 556.839 546.663 556.839 546.663 548.05C546.663 541.803 542.203 540.67 538.91 539.846L538.978 539.949Z" fill="white"/>
<path d="M471.255 626.663C443.637 623.265 418.832 619.66 395.468 615.678C366.787 610.495 345.447 605.963 328.156 601.363C321.672 599.887 315.325 598.308 309.047 596.557C311.139 595.115 312.443 592.884 312.443 589.348C312.443 585.812 311.139 581.521 304.93 580.114H304.758C292.75 578.123 277.62 576.304 259.78 574.69L258.374 574.553L257.207 575.789C252.713 580.526 246.572 584.886 238.235 589.177C230.447 593.708 219.297 598.48 205.917 603.011C191.61 608.023 174.937 613.206 153.425 619.317C130.954 625.256 111.741 629.856 92.9061 633.872C71.5322 638.438 46.4187 642.832 18.2862 646.882L0 649.526L26.5887 664.733L27.4807 664.63C43.3996 662.776 59.0441 660.476 74.0367 657.764V722.199C74.0367 731.742 82.2706 731.742 84.9809 731.742C89.2694 731.742 93.4207 731.33 98.6012 730.403C101.998 729.648 107.384 728.412 108.653 722.782H109.717V811.315C109.717 820.858 117.505 820.858 120.078 820.858C120.215 820.858 120.352 820.858 120.49 820.858V828.17H129.581V820.034C131.057 819.828 132.6 819.554 134.282 819.279C138.776 818.249 144.334 817.013 144.608 809.873H384.25V828.17H393.341V813.477C394.508 819.828 400.923 819.828 405.761 819.828H406.001C420.616 818.558 428.027 816.258 428.027 807.23V747.601C439.589 744.203 443.328 741.697 443.328 735.278C443.328 733.493 443.225 732.017 442.47 730.678C455.885 729.682 463.158 727.348 463.158 718.388V670.775C474.548 667.411 478.459 664.767 478.459 658.211C478.459 656.529 478.391 655.121 477.739 653.817C486.007 654.881 494.447 655.842 502.99 656.7L504.053 656.803L505.014 656.082C510.675 651.894 522.854 649.8 541.209 649.8H545.326V632.979L541.346 632.739C518.909 631.469 495.957 629.478 471.255 626.594V626.663ZM428.267 723.022C428.027 722.954 427.787 722.851 427.546 722.782H428.267C428.267 722.782 428.267 722.954 428.267 723.022ZM381.299 753.025V757.694H144.677V745.782H393.135V757.694H385.691V753.025H381.299ZM393.135 777.81V789.722H144.677V777.81H393.135ZM272.268 603.732C291.515 611.215 306.302 616.193 319.991 619.694C320.059 619.694 320.094 619.729 320.162 619.763L309.939 624.809H239.744C232.711 624.809 226.124 624.741 219.949 624.603C230.413 621.342 239.71 618.184 248.047 615.06C256.452 611.971 264.172 608.366 272.268 603.732ZM187.184 645.681C196.173 645.166 213.979 644.926 239.744 644.651H368.399C377.011 644.651 379.138 639.571 379.309 635.005C381.128 635.52 383.015 636 384.936 636.515H383.118V648.873H130.782V647.191C136.889 645.887 142.996 644.514 149.068 643.072C157.714 641.115 166.908 638.918 176.48 636.515L185.881 645.75L187.15 645.681H187.184ZM376.53 697.036C377.525 696.487 378.486 695.972 379.378 695.457V696.521H390.288V688.523C390.665 688.248 391.077 687.939 391.454 687.664C393.925 687.63 398.522 687.424 406.001 686.635C411.765 686.12 418.969 685.467 418.969 677.091C418.969 672.148 416.053 669.848 413.926 668.715H428.267V702.631H364.934C368.845 700.949 372.791 699.061 376.53 697.036ZM360.646 670.294L358.965 672.148C356.838 674.517 354.608 676.954 352.137 679.185C348.261 682.687 344.384 685.673 341.125 688.145C336.699 691.406 330.969 694.736 325.034 698.169L317.28 702.631H284.139V668.715H361.675C361.332 669.264 360.989 669.814 360.68 670.294H360.646ZM126.425 648.839H122.823C124.023 648.599 125.224 648.324 126.425 648.084V648.839ZM206.569 683.717L205.917 683.064C202.829 680.627 199.021 678.258 194.423 675.958C188.179 673.144 182.176 670.809 175.657 668.681H249.213V702.597H209.176C210.377 700.194 210.994 697.311 210.994 694.221C210.994 689.69 208.867 686.497 206.534 683.717H206.569ZM158.331 684.609C160.527 686.085 162.586 687.596 164.61 689.072C166.703 690.582 168.795 692.093 170.991 693.603C174.147 696.487 176.652 699.267 178.745 702.288C178.779 702.391 178.848 702.494 178.882 702.597H108.997V668.681H124.675L139.393 675.341C147.044 678.808 153.254 681.829 158.297 684.609H158.331ZM135.414 722.679H378.52V725.631H147.113L135.379 722.817V722.714L135.414 722.679ZM389.465 725.631V722.679H400.031L394.371 725.631H389.465ZM429.502 648.805H387.509V637.099C400.649 640.394 416.019 643.621 433.516 646.745L429.502 648.805Z" fill="white"/>
<path d="M388.778 1359.33H373.134V1379H388.778V1359.33Z" fill="white"/>
<path d="M390.871 935.308H378.006V954.978H390.871V935.308Z" fill="white"/>
<path d="M387.92 1040.9H375.055V1060.57H387.92V1040.9Z" fill="white"/>
<path d="M385.725 1300.32H372.859V1319.99H385.725V1300.32Z" fill="white"/>
<path d="M374.815 1260.98V1280.65H385.725V1260.98H384.833V1241.31H381.471V1221.64H383.495V1201.97H377.388V1221.64H375.364V1241.31H375.741V1260.98H374.815Z" fill="white"/>
<path d="M388.058 885.909H378.966V905.579H388.058V885.909Z" fill="white"/>
<path d="M384.833 1153.77H380.441V1173.44H384.833V1153.77Z" fill="white"/>
<path d="M384.558 581.108H375.467V600.778H384.558V581.108Z" fill="white"/>
<path d="M140.731 1359.33H125.087V1379H140.731V1359.33Z" fill="white"/>
<path d="M135.894 935.308H123.029V954.978H135.894V935.308Z" fill="white"/>
<path d="M138.844 1040.9H125.979V1060.57H138.844V1040.9Z" fill="white"/>
<path d="M141.006 1300.32H128.14V1319.99H141.006V1300.32Z" fill="white"/>
<path d="M134.522 676.918H123.612V696.588H134.522V676.918Z" fill="white"/>
<path d="M128.14 1280.65H139.084V1260.98H138.158V1241.31H138.535V1221.64H136.511V1201.97H130.37V1221.64H132.394V1241.31H129.066V1260.98H128.14V1280.65Z" fill="white"/>
<path d="M134.933 885.909H125.842V905.579H134.933V885.909Z" fill="white"/>
<path d="M133.458 1153.77H129.067V1173.44H133.458V1153.77Z" fill="white"/>
<path d="M133.012 334.117H120.147V353.787H133.012V334.117Z" fill="white"/>
<path d="M138.433 581.108H129.341V600.778H138.433V581.108Z" fill="white"/>
<path d="M1243.55 917.168C1242.7 917.168 1242.17 916.629 1242.17 915.783V910.552C1242.17 909.706 1242.7 909.167 1243.55 909.167H1251.66V848.586H1231.52V859.895C1231.52 860.741 1230.86 861.395 1230.02 861.395H1224.06C1223.21 861.395 1222.56 860.741 1222.56 859.895V841.97C1222.56 841.124 1223.21 840.586 1224.06 840.586H1288.35C1289.19 840.586 1289.84 841.124 1289.84 841.97V859.895C1289.84 860.741 1289.19 861.395 1288.35 861.395H1282.27C1281.42 861.395 1280.89 860.741 1280.89 859.895V848.586H1260.97V909.167H1268.43C1269.27 909.167 1269.93 909.706 1269.93 910.552V915.783C1269.93 916.629 1269.27 917.168 1268.43 917.168H1243.55Z" fill="#E6E6E6"/>
<path d="M1344.87 917.168C1341.79 917.168 1340.29 915.975 1340.29 912.706V884.666C1340.29 876.665 1336.45 871.665 1328.56 871.665C1317.68 871.665 1314.38 880.935 1314.38 880.819V910.052H1320.03C1320.87 910.052 1321.41 910.475 1321.41 911.321V915.899C1321.41 916.745 1320.87 917.168 1320.03 917.168H1299.65C1298.8 917.168 1298.27 916.745 1298.27 915.899V911.321C1298.27 910.475 1298.8 910.052 1299.65 910.052H1305.49V847.74H1299.65C1298.8 847.74 1298.27 847.317 1298.27 846.471V841.855C1298.27 841.009 1298.8 840.586 1299.65 840.586H1313.07C1313.91 840.586 1314.34 841.009 1314.34 841.855V865.664C1314.34 867.28 1314.03 871.434 1313.91 872.165H1314.15C1316.07 869.165 1320.76 863.972 1330.79 863.972C1342.29 863.972 1348.9 871.319 1349.02 882.512V910.014H1354.98C1355.82 910.014 1356.36 910.437 1356.36 911.283V915.86C1356.36 916.706 1355.82 917.129 1354.98 917.129H1344.87V917.168Z" fill="#E6E6E6"/>
<path d="M1370.78 891.974C1371.32 904.436 1380.05 910.437 1388.47 910.437C1397.62 910.437 1403.93 904.667 1405.43 902.244C1405.96 901.513 1406.58 901.398 1407.35 901.936L1410.23 904.821C1410.96 905.475 1411.08 906.09 1410.65 906.744C1409.27 909.09 1402 917.937 1387.93 917.937C1373.86 917.937 1361.71 907.821 1361.71 890.743C1361.71 873.665 1374.09 863.972 1386.85 863.972C1402.08 863.972 1410.96 874.088 1410.62 890.628C1410.62 891.474 1410.08 892.012 1409.12 892.012H1370.74L1370.78 891.974ZM1401.81 885.473C1401.39 876.819 1396.27 870.972 1387.08 870.972C1379.74 870.972 1372.28 875.242 1370.97 885.473H1401.81Z" fill="#E6E6E6"/>
<path d="M844.67 964.133H836.48C835.635 964.133 835.212 963.709 835.212 962.863V957.44C835.212 956.594 835.635 956.171 836.48 956.171H862.165C863.011 956.171 863.434 956.594 863.434 957.44V962.863C863.434 963.709 863.011 964.133 862.165 964.133H853.937V1004.02C853.937 1023.52 843.286 1033.44 825.253 1033.44C807.22 1033.44 796.377 1023.52 796.377 1004.02V964.133H788.264C787.418 964.133 786.88 963.709 786.88 962.863V957.44C786.88 956.594 787.303 956.171 788.264 956.171H813.833C814.679 956.171 815.218 956.594 815.218 957.44V962.863C815.218 963.709 814.679 964.133 813.833 964.133H805.644V1004.33C805.644 1016.06 810.334 1024.79 825.253 1024.79C839.095 1024.79 844.67 1016.67 844.67 1004.94V964.094V964.133Z" fill="#E6E6E6"/>
<path d="M912.573 1032.71C909.497 1032.71 907.998 1031.52 907.998 1028.25V1000.21C907.998 992.211 904.153 987.211 896.27 987.211C885.504 987.211 882.198 996.173 882.082 996.289V1025.6H887.734C888.58 1025.6 889.119 1026.02 889.119 1026.87V1031.44C889.119 1032.29 888.58 1032.71 887.734 1032.71H867.356C866.51 1032.71 865.972 1032.29 865.972 1031.44V1026.87C865.972 1026.02 866.51 1025.6 867.356 1025.6H873.2V987.403H867.356C866.51 987.403 865.972 986.98 865.972 986.134V981.557C865.972 980.711 866.51 980.288 867.356 980.288H879.814C880.66 980.288 881.198 980.711 881.198 981.557L880.967 988.827H881.275C882.544 986.711 886.927 979.557 898.423 979.557C909.92 979.557 916.533 986.903 916.649 998.096V1025.6H922.609C923.454 1025.6 923.993 1026.02 923.993 1026.87V1031.44C923.993 1032.29 923.454 1032.71 922.609 1032.71H912.496H912.573Z" fill="#E6E6E6"/>
<path d="M933.182 1032.71C932.336 1032.71 931.798 1032.29 931.798 1031.44V1026.87C931.798 1026.02 932.336 1025.6 933.182 1025.6H939.027V987.403H933.182C932.336 987.403 931.798 986.98 931.798 986.134V981.557C931.798 980.711 932.336 980.288 933.182 980.288H945.64C946.486 980.288 947.024 980.711 947.024 981.557V994.904H947.332C947.332 994.904 950.831 980.095 970.133 980.095C970.979 980.095 971.517 980.634 971.517 981.48V987.134C971.517 987.98 970.979 988.519 970.133 988.519H967.903C955.022 988.519 947.87 998.558 947.87 1007.71V1025.64H953.522C954.368 1025.64 954.907 1026.06 954.907 1026.91V1031.48C954.907 1032.33 954.368 1032.75 953.522 1032.75H933.144L933.182 1032.71Z" fill="#E6E6E6"/>
<path d="M984.013 1007.56C984.552 1020.02 993.28 1026.02 1001.7 1026.02C1010.85 1026.02 1017.16 1020.25 1018.66 1017.83C1019.19 1017.1 1019.81 1016.98 1020.58 1017.52L1023.46 1020.41C1024.19 1021.06 1024.31 1021.68 1023.89 1022.33C1022.5 1024.68 1015.23 1033.52 1001.16 1033.52C987.089 1033.52 974.939 1023.41 974.939 1006.33C974.939 989.25 987.32 979.557 1000.09 979.557C1015.31 979.557 1024.19 989.673 1023.85 1006.21C1023.85 1007.06 1023.31 1007.6 1022.35 1007.6H983.975L984.013 1007.56ZM1015.04 1001.06C1014.62 992.404 1009.51 986.557 1000.32 986.557C992.972 986.557 985.513 990.827 984.205 1001.06H1015.04Z" fill="#E6E6E6"/>
<path d="M1039.27 1025.79H1039.04C1039.04 1025.79 1039.27 1031.02 1039.27 1031.33C1039.27 1032.18 1038.61 1032.71 1037.77 1032.71H1034.15C1033.31 1032.71 1032.77 1032.18 1032.77 1031.33V1015.33C1032.77 1014.48 1033.31 1013.94 1034.15 1013.94H1038.3C1039.15 1013.94 1039.8 1014.48 1039.8 1015.33V1017.44C1039.8 1017.44 1042.8 1026.52 1054.84 1026.52C1062.41 1026.52 1066.33 1023.44 1066.33 1018.21C1066.33 1007.64 1034.27 1013.21 1034.27 994.635C1034.27 985.134 1041.96 979.48 1052.07 979.48C1060.07 979.48 1064.64 982.249 1067.22 985.673H1067.41C1067.41 985.673 1067.22 981.826 1067.22 981.711C1067.22 980.865 1067.76 980.326 1068.6 980.326H1072.03C1072.87 980.326 1073.41 980.865 1073.41 981.711V996.519C1073.41 997.366 1072.87 997.904 1072.03 997.904H1067.87C1067.03 997.904 1066.37 997.366 1066.37 996.519V995.019C1066.37 992.019 1062.87 986.48 1053.15 986.48C1047.92 986.48 1043.03 989.365 1043.03 994.789C1043.03 1006.75 1075.64 1000.44 1075.64 1018.37C1075.64 1026.14 1070.22 1033.41 1056.03 1033.41C1045.03 1033.41 1040.15 1027.56 1039.3 1025.71L1039.27 1025.79Z" fill="#E6E6E6"/>
<path d="M1118.59 1027.25C1119.24 1027.91 1119.01 1028.64 1118.4 1029.29C1117.43 1030.14 1113.9 1033.44 1107.63 1033.44C1096.98 1033.44 1090.48 1027.37 1090.48 1015.33V987.403H1084.52C1083.68 987.403 1083.02 986.865 1083.02 986.019V981.634C1083.02 980.788 1083.68 980.249 1084.52 980.249H1090.48V969.479C1090.48 968.633 1091.14 967.979 1091.98 967.979H1097.94C1098.79 967.979 1099.32 968.633 1099.32 969.479V980.249H1112.86C1113.71 980.249 1114.36 980.788 1114.36 981.634V986.019C1114.36 986.865 1113.71 987.403 1112.86 987.403H1099.32V1015.14C1099.32 1022.29 1102.75 1025.91 1108.48 1025.91C1111.67 1025.91 1113.71 1024.29 1114.13 1023.87C1114.86 1023.21 1115.51 1023.33 1116.05 1023.98L1118.63 1027.29L1118.59 1027.25Z" fill="#E6E6E6"/>
<path d="M1126.28 1032.71C1125.43 1032.71 1124.89 1032.29 1124.89 1031.44V1026.87C1124.89 1026.02 1125.43 1025.6 1126.28 1025.6H1132.12V987.403H1126.28C1125.43 987.403 1124.89 986.98 1124.89 986.134V981.557C1124.89 980.711 1125.43 980.288 1126.28 980.288H1138.74C1139.58 980.288 1140.12 980.711 1140.12 981.557V994.904H1140.43C1140.43 994.904 1143.97 980.095 1163.23 980.095C1164.07 980.095 1164.61 980.634 1164.61 981.48V987.134C1164.61 987.98 1164.07 988.519 1163.23 988.519H1161C1148.12 988.519 1140.97 998.558 1140.97 1007.71V1025.64H1146.62C1147.46 1025.64 1148 1026.06 1148 1026.91V1031.48C1148 1032.33 1147.46 1032.75 1146.62 1032.75H1126.24L1126.28 1032.71Z" fill="#E6E6E6"/>
<path d="M1171.15 1032.71C1170.3 1032.71 1169.77 1032.29 1169.77 1031.44V1026.87C1169.77 1026.02 1170.3 1025.6 1171.15 1025.6H1176.99V987.403H1171.15C1170.3 987.403 1169.77 986.98 1169.77 986.134V981.557C1169.77 980.711 1170.3 980.288 1171.15 980.288H1184.57C1185.41 980.288 1185.84 980.711 1185.84 981.557V1025.6H1191.49C1192.34 1025.6 1192.87 1026.02 1192.87 1026.87V1031.44C1192.87 1032.29 1192.34 1032.71 1191.49 1032.71H1171.11H1171.15ZM1181.26 974.595C1177.96 974.595 1175.3 972.018 1175.3 968.748C1175.3 965.479 1177.96 962.671 1181.26 962.671C1184.57 962.671 1187.22 965.44 1187.22 968.748C1187.22 972.056 1184.57 974.595 1181.26 974.595Z" fill="#E6E6E6"/>
<path d="M1248.36 1020.33C1249.09 1020.98 1249.09 1021.6 1248.66 1022.25C1247.4 1024.6 1240.01 1033.44 1225.94 1033.44C1211.87 1033.44 1199.72 1023.33 1199.72 1006.25C1199.72 989.173 1212.18 979.48 1225.09 979.48C1234.78 979.48 1239.82 984.172 1242.05 987.365H1242.17L1242.05 981.518C1242.05 980.672 1242.59 980.134 1243.44 980.134H1247.47C1248.32 980.134 1248.74 980.672 1248.74 981.518V999.635C1248.74 1000.48 1248.2 1000.9 1247.47 1000.9H1242.55C1241.82 1000.9 1241.28 1000.48 1241.28 999.635V997.827C1241.17 993.25 1235.44 986.942 1226.13 986.942C1218.14 986.942 1208.64 993.558 1208.64 1006.37C1208.64 1019.17 1217.6 1025.98 1226.44 1025.98C1235.28 1025.98 1241.9 1020.14 1243.4 1017.67C1243.82 1016.94 1244.55 1016.83 1245.2 1017.37L1248.28 1020.37L1248.36 1020.33Z" fill="#E6E6E6"/>
<path d="M1292.81 1027.25C1293.46 1027.91 1293.23 1028.64 1292.61 1029.29C1291.65 1030.14 1288.15 1033.44 1281.85 1033.44C1271.2 1033.44 1264.7 1027.37 1264.7 1015.33V987.403H1258.74C1257.89 987.403 1257.24 986.865 1257.24 986.019V981.634C1257.24 980.788 1257.89 980.249 1258.74 980.249H1264.7V969.479C1264.7 968.633 1265.35 967.979 1266.2 967.979H1272.16C1273 967.979 1273.54 968.633 1273.54 969.479V980.249H1287.08C1287.92 980.249 1288.58 980.788 1288.58 981.634V986.019C1288.58 986.865 1287.92 987.403 1287.08 987.403H1273.54V1015.14C1273.54 1022.29 1276.96 1025.91 1282.69 1025.91C1285.88 1025.91 1287.92 1024.29 1288.35 1023.87C1289.08 1023.21 1289.73 1023.33 1290.27 1023.98L1292.84 1027.29L1292.81 1027.25Z" fill="#E6E6E6"/>
<path d="M1305.49 1007.56C1306.03 1020.02 1314.76 1026.02 1323.18 1026.02C1332.33 1026.02 1338.64 1020.25 1340.14 1017.83C1340.68 1017.1 1341.29 1016.98 1342.06 1017.52L1344.94 1020.41C1345.67 1021.06 1345.79 1021.68 1345.37 1022.33C1343.98 1024.68 1336.72 1033.52 1322.64 1033.52C1308.57 1033.52 1296.42 1023.41 1296.42 1006.33C1296.42 989.25 1308.8 979.557 1321.57 979.557C1336.79 979.557 1345.67 989.673 1345.33 1006.21C1345.33 1007.06 1344.79 1007.6 1343.83 1007.6H1305.46L1305.49 1007.56ZM1336.52 1001.06C1336.1 992.404 1330.99 986.557 1321.8 986.557C1314.45 986.557 1306.99 990.827 1305.69 1001.06H1336.52Z" fill="#E6E6E6"/>
<path d="M1400.39 1032.71C1397.2 1032.71 1395.7 1031.52 1395.7 1028.25V1022.29H1395.58C1393.54 1027.52 1387.47 1033.48 1377.78 1033.48C1363.59 1033.48 1353.79 1022.83 1353.79 1006.17C1353.79 990.481 1363.4 979.518 1377.9 979.518C1387.39 979.518 1392.93 984.865 1395.16 989.981H1395.27C1395.27 989.981 1395.16 987.865 1395.16 986.48V963.325H1389.2C1388.35 963.325 1387.82 962.902 1387.82 962.056V957.478C1387.82 956.632 1388.35 956.209 1389.2 956.209H1402.43C1403.27 956.209 1403.7 956.632 1403.7 957.478V1025.64H1409.65C1410.5 1025.64 1410.92 1026.06 1410.92 1026.91V1031.48C1410.92 1032.33 1410.39 1032.75 1409.65 1032.75H1400.39V1032.71ZM1395.27 1006.37C1395.27 993.904 1387.82 986.942 1379.09 986.942C1370.36 986.942 1362.55 994.212 1362.55 1006.25C1362.55 1018.29 1369.47 1025.98 1379.09 1025.98C1388.7 1025.98 1395.27 1018.41 1395.27 1006.37Z" fill="#E6E6E6"/>
<path d="M1043.42 1148.26C1042.46 1148.26 1042.03 1147.84 1042.03 1146.99V1122.03C1042.03 1121.18 1042.57 1120.64 1043.42 1120.64H1050.15C1050.88 1120.64 1051.42 1121.18 1051.42 1122.03V1124.26C1051.42 1125.87 1057.07 1140.38 1074.22 1140.38C1085.1 1140.38 1091.71 1135.68 1091.71 1127.49C1091.71 1109.91 1044.38 1119.18 1044.38 1091.76C1044.38 1080.14 1053.76 1071.06 1069.33 1071.06C1080.33 1071.06 1086.71 1074.79 1090.44 1079.49L1090.21 1072.87C1090.21 1072.02 1090.75 1071.6 1091.6 1071.6H1097.56C1098.4 1071.6 1098.82 1072.02 1098.82 1072.87V1096.1C1098.82 1096.95 1098.4 1097.37 1097.56 1097.37H1090.83C1089.98 1097.37 1089.56 1096.95 1089.56 1096.1V1093.1C1089.56 1088.72 1084.56 1079.76 1070.26 1079.76C1060.64 1079.76 1054.57 1084.87 1054.57 1091.72C1054.57 1110.26 1102.75 1101.22 1102.75 1127.45C1102.75 1138.95 1094.86 1148.99 1075.99 1148.99C1061.18 1148.99 1053.26 1140.99 1050.49 1136.53L1050.61 1146.99C1050.61 1147.84 1050.19 1148.26 1049.34 1148.26H1043.38H1043.42Z" fill="#E6E6E6"/>
<path d="M1110.4 1121.8C1110.4 1104.95 1122.24 1095.03 1137.04 1095.03C1151.85 1095.03 1163.5 1105.14 1163.5 1121.8C1163.5 1138.45 1152.19 1148.99 1136.97 1148.99C1121.74 1148.99 1110.44 1138.53 1110.44 1121.8H1110.4ZM1154.65 1121.91C1154.65 1109.76 1146.23 1102.49 1137.08 1102.49C1127.93 1102.49 1119.4 1109.76 1119.4 1121.91C1119.4 1134.07 1127.51 1141.53 1136.97 1141.53C1146.43 1141.53 1154.65 1133.95 1154.65 1121.91Z" fill="#E6E6E6"/>
<path d="M1219.79 1135.88C1220.52 1136.53 1220.52 1137.14 1220.1 1137.8C1218.83 1140.14 1211.45 1148.99 1197.37 1148.99C1183.3 1148.99 1171.15 1138.88 1171.15 1121.8C1171.15 1104.72 1183.61 1095.03 1196.53 1095.03C1206.22 1095.03 1211.25 1099.72 1213.48 1102.91H1213.6L1213.48 1097.06C1213.48 1096.22 1214.02 1095.68 1214.87 1095.68H1218.9C1219.75 1095.68 1220.17 1096.22 1220.17 1097.06V1115.18C1220.17 1116.03 1219.63 1116.45 1218.9 1116.45H1213.98C1213.25 1116.45 1212.71 1116.03 1212.71 1115.18V1113.37C1212.6 1108.8 1206.87 1102.49 1197.56 1102.49C1189.57 1102.49 1180.07 1109.1 1180.07 1121.91C1180.07 1134.72 1189.03 1141.53 1197.87 1141.53C1206.72 1141.53 1213.33 1135.68 1214.83 1133.22C1215.25 1132.49 1215.98 1132.37 1216.64 1132.91L1219.71 1135.91L1219.79 1135.88Z" fill="#E6E6E6"/>
<path d="M1230.44 1148.26C1229.59 1148.26 1229.06 1147.84 1229.06 1146.99V1142.41C1229.06 1141.57 1229.59 1141.14 1230.44 1141.14H1236.28V1102.95H1230.44C1229.59 1102.95 1229.06 1102.53 1229.06 1101.68V1097.1C1229.06 1096.26 1229.59 1095.83 1230.44 1095.83H1243.86C1244.7 1095.83 1245.13 1096.26 1245.13 1097.1V1141.14H1250.78C1251.63 1141.14 1252.16 1141.57 1252.16 1142.41V1146.99C1252.16 1147.84 1251.63 1148.26 1250.78 1148.26H1230.4H1230.44ZM1240.55 1090.14C1237.24 1090.14 1234.59 1087.56 1234.59 1084.29C1234.59 1081.03 1237.24 1078.22 1240.55 1078.22C1243.86 1078.22 1246.51 1080.99 1246.51 1084.29C1246.51 1087.6 1243.86 1090.14 1240.55 1090.14Z" fill="#E6E6E6"/>
<path d="M1268.08 1123.11C1268.62 1135.57 1277.35 1141.57 1285.77 1141.57C1294.92 1141.57 1301.23 1135.8 1302.73 1133.37C1303.26 1132.64 1303.88 1132.53 1304.65 1133.07L1307.53 1135.95C1308.26 1136.61 1308.38 1137.22 1307.95 1137.88C1306.57 1140.22 1299.3 1149.07 1285.23 1149.07C1271.16 1149.07 1259.01 1138.95 1259.01 1121.87C1259.01 1104.8 1271.39 1095.1 1284.15 1095.1C1299.38 1095.1 1308.26 1105.22 1307.92 1121.76C1307.92 1122.61 1307.38 1123.14 1306.42 1123.14H1268.04L1268.08 1123.11ZM1299.11 1116.6C1298.69 1107.95 1293.57 1102.1 1284.38 1102.1C1277.04 1102.1 1269.58 1106.37 1268.27 1116.6H1299.11Z" fill="#E6E6E6"/>
<path d="M1351.44 1142.84C1352.1 1143.49 1351.86 1144.22 1351.25 1144.88C1350.29 1145.72 1346.79 1149.03 1340.48 1149.03C1329.83 1149.03 1323.33 1142.95 1323.33 1130.91V1102.99H1317.37C1316.53 1102.99 1315.88 1102.45 1315.88 1101.6V1097.22C1315.88 1096.37 1316.53 1095.83 1317.37 1095.83H1323.33V1085.06C1323.33 1084.22 1323.99 1083.56 1324.83 1083.56H1330.79C1331.64 1083.56 1332.18 1084.22 1332.18 1085.06V1095.83H1345.71C1346.56 1095.83 1347.21 1096.37 1347.21 1097.22V1101.6C1347.21 1102.45 1346.56 1102.99 1345.71 1102.99H1332.18V1130.72C1332.18 1137.88 1335.6 1141.49 1341.33 1141.49C1344.52 1141.49 1346.56 1139.88 1346.98 1139.45C1347.71 1138.8 1348.37 1138.91 1348.9 1139.57L1351.48 1142.88L1351.44 1142.84Z" fill="#E6E6E6"/>
<path d="M1379.93 1147.07C1378.55 1147.07 1377.9 1146.34 1377.16 1144.41L1360.86 1102.91H1355.02C1354.29 1102.91 1353.75 1102.49 1353.75 1101.64V1097.06C1353.75 1096.22 1354.17 1095.8 1355.02 1095.8H1374.32C1375.17 1095.8 1375.7 1096.22 1375.7 1097.06V1101.64C1375.7 1102.49 1375.17 1102.91 1374.32 1102.91H1369.94L1383.7 1139.07H1383.89L1396.7 1102.91H1391.89C1391.05 1102.91 1390.62 1102.49 1390.62 1101.64V1097.06C1390.62 1096.22 1391.05 1095.8 1391.89 1095.8H1411.73C1412.58 1095.8 1413 1096.22 1413 1097.06V1101.64C1413 1102.49 1412.58 1102.91 1411.73 1102.91H1405.77L1386.82 1155.07C1382.66 1166.38 1378.82 1173.19 1368.71 1173.19C1362.4 1173.19 1358.9 1169.88 1357.94 1169.03C1357.29 1168.38 1357.09 1167.76 1357.63 1167.11L1360.29 1163.68C1360.94 1163.15 1361.44 1163.03 1362.21 1163.57C1362.75 1163.99 1364.55 1165.61 1367.86 1165.61C1373.28 1165.61 1375.74 1162.53 1378.51 1154.95L1381.39 1147.07H1379.93Z" fill="#E6E6E6"/>
</svg>
